<svg width="600" height="300" viewBox="0 0 600 300" fill="none" xmlns="http://www.w3.org/2000/svg">
<rect x="1.5" y="1.5" width="597" height="297" rx="48.5" fill="white" stroke="#00BFA6" stroke-width="3"/>
<rect x="110" y="36" width="200" height="50" rx="10" fill="#00BFA6"/>
<path d="M147.98 69V51.9375H152.797C154.281 51.9375 155.594 52.2656 156.734 52.9219C157.875 53.5781 158.754 54.5117 159.371 55.7227C159.996 56.9336 160.312 58.3242 160.32 59.8945V60.9844C160.32 62.5938 160.008 64.0039 159.383 65.2148C158.766 66.4258 157.879 67.3555 156.723 68.0039C155.574 68.6523 154.234 68.9844 152.703 69H147.98ZM150.23 53.7891V67.1602H152.598C154.332 67.1602 155.68 66.6211 156.641 65.543C157.609 64.4648 158.094 62.9297 158.094 60.9375V59.9414C158.094 58.0039 157.637 56.5 156.723 55.4297C155.816 54.3516 154.527 53.8047 152.855 53.7891H150.23ZM171.219 69C171.094 68.75 170.992 68.3047 170.914 67.6641C169.906 68.7109 168.703 69.2344 167.305 69.2344C166.055 69.2344 165.027 68.8828 164.223 68.1797C163.426 67.4688 163.027 66.5703 163.027 65.4844C163.027 64.1641 163.527 63.1406 164.527 62.4141C165.535 61.6797 166.949 61.3125 168.77 61.3125H170.879V60.3164C170.879 59.5586 170.652 58.957 170.199 58.5117C169.746 58.0586 169.078 57.832 168.195 57.832C167.422 57.832 166.773 58.0273 166.25 58.418C165.727 58.8086 165.465 59.2812 165.465 59.8359H163.285C163.285 59.2031 163.508 58.5938 163.953 58.0078C164.406 57.4141 165.016 56.9453 165.781 56.6016C166.555 56.2578 167.402 56.0859 168.324 56.0859C169.785 56.0859 170.93 56.4531 171.758 57.1875C172.586 57.9141 173.016 58.918 173.047 60.1992V66.0352C173.047 67.1992 173.195 68.125 173.492 68.8125V69H171.219ZM167.621 67.3477C168.301 67.3477 168.945 67.1719 169.555 66.8203C170.164 66.4688 170.605 66.0117 170.879 65.4492V62.8477H169.18C166.523 62.8477 165.195 63.625 165.195 65.1797C165.195 65.8594 165.422 66.3906 165.875 66.7734C166.328 67.1562 166.91 67.3477 167.621 67.3477ZM179.387 53.25V56.3203H181.754V57.9961H179.387V65.8594C179.387 66.3672 179.492 66.75 179.703 67.0078C179.914 67.2578 180.273 67.3828 180.781 67.3828C181.031 67.3828 181.375 67.3359 181.812 67.2422V69C181.242 69.1562 180.688 69.2344 180.148 69.2344C179.18 69.2344 178.449 68.9414 177.957 68.3555C177.465 67.7695 177.219 66.9375 177.219 65.8594V57.9961H174.91V56.3203H177.219V53.25H179.387ZM192.125 69C192 68.75 191.898 68.3047 191.82 67.6641C190.812 68.7109 189.609 69.2344 188.211 69.2344C186.961 69.2344 185.934 68.8828 185.129 68.1797C184.332 67.4688 183.934 66.5703 183.934 65.4844C183.934 64.1641 184.434 63.1406 185.434 62.4141C186.441 61.6797 187.855 61.3125 189.676 61.3125H191.785V60.3164C191.785 59.5586 191.559 58.957 191.105 58.5117C190.652 58.0586 189.984 57.832 189.102 57.832C188.328 57.832 187.68 58.0273 187.156 58.418C186.633 58.8086 186.371 59.2812 186.371 59.8359H184.191C184.191 59.2031 184.414 58.5938 184.859 58.0078C185.312 57.4141 185.922 56.9453 186.688 56.6016C187.461 56.2578 188.309 56.0859 189.23 56.0859C190.691 56.0859 191.836 56.4531 192.664 57.1875C193.492 57.9141 193.922 58.918 193.953 60.1992V66.0352C193.953 67.1992 194.102 68.125 194.398 68.8125V69H192.125ZM188.527 67.3477C189.207 67.3477 189.852 67.1719 190.461 66.8203C191.07 66.4688 191.512 66.0117 191.785 65.4492V62.8477H190.086C187.43 62.8477 186.102 63.625 186.102 65.1797C186.102 65.8594 186.328 66.3906 186.781 66.7734C187.234 67.1562 187.816 67.3477 188.527 67.3477ZM207.113 64.5469H199.965L198.359 69H196.039L202.555 51.9375H204.523L211.051 69H208.742L207.113 64.5469ZM200.645 62.6953H206.445L203.539 54.7148L200.645 62.6953ZM218.094 67.4648C218.867 67.4648 219.543 67.2305 220.121 66.7617C220.699 66.293 221.02 65.707 221.082 65.0039H223.133C223.094 65.7305 222.844 66.4219 222.383 67.0781C221.922 67.7344 221.305 68.2578 220.531 68.6484C219.766 69.0391 218.953 69.2344 218.094 69.2344C216.367 69.2344 214.992 68.6602 213.969 67.5117C212.953 66.3555 212.445 64.7773 212.445 62.7773V62.4141C212.445 61.1797 212.672 60.082 213.125 59.1211C213.578 58.1602 214.227 57.4141 215.07 56.8828C215.922 56.3516 216.926 56.0859 218.082 56.0859C219.504 56.0859 220.684 56.5117 221.621 57.3633C222.566 58.2148 223.07 59.3203 223.133 60.6797H221.082C221.02 59.8594 220.707 59.1875 220.145 58.6641C219.59 58.1328 218.902 57.8672 218.082 57.8672C216.98 57.8672 216.125 58.2656 215.516 59.0625C214.914 59.8516 214.613 60.9961 214.613 62.4961V62.9062C214.613 64.3672 214.914 65.4922 215.516 66.2812C216.117 67.0703 216.977 67.4648 218.094 67.4648ZM230.656 67.4648C231.43 67.4648 232.105 67.2305 232.684 66.7617C233.262 66.293 233.582 65.707 233.645 65.0039H235.695C235.656 65.7305 235.406 66.4219 234.945 67.0781C234.484 67.7344 233.867 68.2578 233.094 68.6484C232.328 69.0391 231.516 69.2344 230.656 69.2344C228.93 69.2344 227.555 68.6602 226.531 67.5117C225.516 66.3555 225.008 64.7773 225.008 62.7773V62.4141C225.008 61.1797 225.234 60.082 225.688 59.1211C226.141 58.1602 226.789 57.4141 227.633 56.8828C228.484 56.3516 229.488 56.0859 230.645 56.0859C232.066 56.0859 233.246 56.5117 234.184 57.3633C235.129 58.2148 235.633 59.3203 235.695 60.6797H233.645C233.582 59.8594 233.27 59.1875 232.707 58.6641C232.152 58.1328 231.465 57.8672 230.645 57.8672C229.543 57.8672 228.688 58.2656 228.078 59.0625C227.477 59.8516 227.176 60.9961 227.176 62.4961V62.9062C227.176 64.3672 227.477 65.4922 228.078 66.2812C228.68 67.0703 229.539 67.4648 230.656 67.4648ZM243.395 69.2344C241.676 69.2344 240.277 68.6719 239.199 67.5469C238.121 66.4141 237.582 64.9023 237.582 63.0117V62.6133C237.582 61.3555 237.82 60.2344 238.297 59.25C238.781 58.2578 239.453 57.4844 240.312 56.9297C241.18 56.3672 242.117 56.0859 243.125 56.0859C244.773 56.0859 246.055 56.6289 246.969 57.7148C247.883 58.8008 248.34 60.3555 248.34 62.3789V63.2812H239.75C239.781 64.5312 240.145 65.543 240.84 66.3164C241.543 67.082 242.434 67.4648 243.512 67.4648C244.277 67.4648 244.926 67.3086 245.457 66.9961C245.988 66.6836 246.453 66.2695 246.852 65.7539L248.176 66.7852C247.113 68.418 245.52 69.2344 243.395 69.2344ZM243.125 57.8672C242.25 57.8672 241.516 58.1875 240.922 58.8281C240.328 59.4609 239.961 60.3516 239.82 61.5H246.172V61.3359C246.109 60.2344 245.812 59.3828 245.281 58.7812C244.75 58.1719 244.031 57.8672 243.125 57.8672ZM258.242 65.6367C258.242 65.0508 258.02 64.5977 257.574 64.2773C257.137 63.9492 256.367 63.668 255.266 63.4336C254.172 63.1992 253.301 62.918 252.652 62.5898C252.012 62.2617 251.535 61.8711 251.223 61.418C250.918 60.9648 250.766 60.4258 250.766 59.8008C250.766 58.7617 251.203 57.8828 252.078 57.1641C252.961 56.4453 254.086 56.0859 255.453 56.0859C256.891 56.0859 258.055 56.457 258.945 57.1992C259.844 57.9414 260.293 58.8906 260.293 60.0469H258.113C258.113 59.4531 257.859 58.9414 257.352 58.5117C256.852 58.082 256.219 57.8672 255.453 57.8672C254.664 57.8672 254.047 58.0391 253.602 58.3828C253.156 58.7266 252.934 59.1758 252.934 59.7305C252.934 60.2539 253.141 60.6484 253.555 60.9141C253.969 61.1797 254.715 61.4336 255.793 61.6758C256.879 61.918 257.758 62.207 258.43 62.543C259.102 62.8789 259.598 63.2852 259.918 63.7617C260.246 64.2305 260.41 64.8047 260.41 65.4844C260.41 66.6172 259.957 67.5273 259.051 68.2148C258.145 68.8945 256.969 69.2344 255.523 69.2344C254.508 69.2344 253.609 69.0547 252.828 68.6953C252.047 68.3359 251.434 67.8359 250.988 67.1953C250.551 66.5469 250.332 65.8477 250.332 65.0977H252.5C252.539 65.8242 252.828 66.4023 253.367 66.832C253.914 67.2539 254.633 67.4648 255.523 67.4648C256.344 67.4648 257 67.3008 257.492 66.9727C257.992 66.6367 258.242 66.1914 258.242 65.6367ZM270.617 65.6367C270.617 65.0508 270.395 64.5977 269.949 64.2773C269.512 63.9492 268.742 63.668 267.641 63.4336C266.547 63.1992 265.676 62.918 265.027 62.5898C264.387 62.2617 263.91 61.8711 263.598 61.418C263.293 60.9648 263.141 60.4258 263.141 59.8008C263.141 58.7617 263.578 57.8828 264.453 57.1641C265.336 56.4453 266.461 56.0859 267.828 56.0859C269.266 56.0859 270.43 56.457 271.32 57.1992C272.219 57.9414 272.668 58.8906 272.668 60.0469H270.488C270.488 59.4531 270.234 58.9414 269.727 58.5117C269.227 58.082 268.594 57.8672 267.828 57.8672C267.039 57.8672 266.422 58.0391 265.977 58.3828C265.531 58.7266 265.309 59.1758 265.309 59.7305C265.309 60.2539 265.516 60.6484 265.93 60.9141C266.344 61.1797 267.09 61.4336 268.168 61.6758C269.254 61.918 270.133 62.207 270.805 62.543C271.477 62.8789 271.973 63.2852 272.293 63.7617C272.621 64.2305 272.785 64.8047 272.785 65.4844C272.785 66.6172 272.332 67.5273 271.426 68.2148C270.52 68.8945 269.344 69.2344 267.898 69.2344C266.883 69.2344 265.984 69.0547 265.203 68.6953C264.422 68.3359 263.809 67.8359 263.363 67.1953C262.926 66.5469 262.707 65.8477 262.707 65.0977H264.875C264.914 65.8242 265.203 66.4023 265.742 66.832C266.289 67.2539 267.008 67.4648 267.898 67.4648C268.719 67.4648 269.375 67.3008 269.867 66.9727C270.367 66.6367 270.617 66.1914 270.617 65.6367Z" fill="white"/>
<rect x="110" y="125" width="200" height="50" rx="10" fill="#00BFA6"/>
<path d="M162.98 158V140.938H168.559C170.41 140.938 171.801 141.32 172.73 142.086C173.668 142.852 174.137 143.984 174.137 145.484C174.137 146.281 173.91 146.988 173.457 147.605C173.004 148.215 172.387 148.688 171.605 149.023C172.527 149.281 173.254 149.773 173.785 150.5C174.324 151.219 174.594 152.078 174.594 153.078C174.594 154.609 174.098 155.812 173.105 156.688C172.113 157.562 170.711 158 168.898 158H162.98ZM165.23 150.02V156.16H168.945C169.992 156.16 170.816 155.891 171.418 155.352C172.027 154.805 172.332 154.055 172.332 153.102C172.332 151.047 171.215 150.02 168.98 150.02H165.23ZM165.23 148.215H168.629C169.613 148.215 170.398 147.969 170.984 147.477C171.578 146.984 171.875 146.316 171.875 145.473C171.875 144.535 171.602 143.855 171.055 143.434C170.508 143.004 169.676 142.789 168.559 142.789H165.23V148.215ZM185.422 156.746C184.578 157.738 183.34 158.234 181.707 158.234C180.355 158.234 179.324 157.844 178.613 157.062C177.91 156.273 177.555 155.109 177.547 153.57V145.32H179.715V153.512C179.715 155.434 180.496 156.395 182.059 156.395C183.715 156.395 184.816 155.777 185.363 154.543V145.32H187.531V158H185.469L185.422 156.746ZM198.219 154.637C198.219 154.051 197.996 153.598 197.551 153.277C197.113 152.949 196.344 152.668 195.242 152.434C194.148 152.199 193.277 151.918 192.629 151.59C191.988 151.262 191.512 150.871 191.199 150.418C190.895 149.965 190.742 149.426 190.742 148.801C190.742 147.762 191.18 146.883 192.055 146.164C192.938 145.445 194.062 145.086 195.43 145.086C196.867 145.086 198.031 145.457 198.922 146.199C199.82 146.941 200.27 147.891 200.27 149.047H198.09C198.09 148.453 197.836 147.941 197.328 147.512C196.828 147.082 196.195 146.867 195.43 146.867C194.641 146.867 194.023 147.039 193.578 147.383C193.133 147.727 192.91 148.176 192.91 148.73C192.91 149.254 193.117 149.648 193.531 149.914C193.945 150.18 194.691 150.434 195.77 150.676C196.855 150.918 197.734 151.207 198.406 151.543C199.078 151.879 199.574 152.285 199.895 152.762C200.223 153.23 200.387 153.805 200.387 154.484C200.387 155.617 199.934 156.527 199.027 157.215C198.121 157.895 196.945 158.234 195.5 158.234C194.484 158.234 193.586 158.055 192.805 157.695C192.023 157.336 191.41 156.836 190.965 156.195C190.527 155.547 190.309 154.848 190.309 154.098H192.477C192.516 154.824 192.805 155.402 193.344 155.832C193.891 156.254 194.609 156.465 195.5 156.465C196.32 156.465 196.977 156.301 197.469 155.973C197.969 155.637 198.219 155.191 198.219 154.637ZM205.566 158H203.398V145.32H205.566V158ZM203.223 141.957C203.223 141.605 203.328 141.309 203.539 141.066C203.758 140.824 204.078 140.703 204.5 140.703C204.922 140.703 205.242 140.824 205.461 141.066C205.68 141.309 205.789 141.605 205.789 141.957C205.789 142.309 205.68 142.602 205.461 142.836C205.242 143.07 204.922 143.188 204.5 143.188C204.078 143.188 203.758 143.07 203.539 142.836C203.328 142.602 203.223 142.309 203.223 141.957ZM211.098 145.32L211.168 146.914C212.137 145.695 213.402 145.086 214.965 145.086C217.645 145.086 218.996 146.598 219.02 149.621V158H216.852V149.609C216.844 148.695 216.633 148.02 216.219 147.582C215.812 147.145 215.176 146.926 214.309 146.926C213.605 146.926 212.988 147.113 212.457 147.488C211.926 147.863 211.512 148.355 211.215 148.965V158H209.047V145.32H211.098ZM227.551 158.234C225.832 158.234 224.434 157.672 223.355 156.547C222.277 155.414 221.738 153.902 221.738 152.012V151.613C221.738 150.355 221.977 149.234 222.453 148.25C222.938 147.258 223.609 146.484 224.469 145.93C225.336 145.367 226.273 145.086 227.281 145.086C228.93 145.086 230.211 145.629 231.125 146.715C232.039 147.801 232.496 149.355 232.496 151.379V152.281H223.906C223.938 153.531 224.301 154.543 224.996 155.316C225.699 156.082 226.59 156.465 227.668 156.465C228.434 156.465 229.082 156.309 229.613 155.996C230.145 155.684 230.609 155.27 231.008 154.754L232.332 155.785C231.27 157.418 229.676 158.234 227.551 158.234ZM227.281 146.867C226.406 146.867 225.672 147.188 225.078 147.828C224.484 148.461 224.117 149.352 223.977 150.5H230.328V150.336C230.266 149.234 229.969 148.383 229.438 147.781C228.906 147.172 228.188 146.867 227.281 146.867ZM242.398 154.637C242.398 154.051 242.176 153.598 241.73 153.277C241.293 152.949 240.523 152.668 239.422 152.434C238.328 152.199 237.457 151.918 236.809 151.59C236.168 151.262 235.691 150.871 235.379 150.418C235.074 149.965 234.922 149.426 234.922 148.801C234.922 147.762 235.359 146.883 236.234 146.164C237.117 145.445 238.242 145.086 239.609 145.086C241.047 145.086 242.211 145.457 243.102 146.199C244 146.941 244.449 147.891 244.449 149.047H242.27C242.27 148.453 242.016 147.941 241.508 147.512C241.008 147.082 240.375 146.867 239.609 146.867C238.82 146.867 238.203 147.039 237.758 147.383C237.312 147.727 237.09 148.176 237.09 148.73C237.09 149.254 237.297 149.648 237.711 149.914C238.125 150.18 238.871 150.434 239.949 150.676C241.035 150.918 241.914 151.207 242.586 151.543C243.258 151.879 243.754 152.285 244.074 152.762C244.402 153.23 244.566 153.805 244.566 154.484C244.566 155.617 244.113 156.527 243.207 157.215C242.301 157.895 241.125 158.234 239.68 158.234C238.664 158.234 237.766 158.055 236.984 157.695C236.203 157.336 235.59 156.836 235.145 156.195C234.707 155.547 234.488 154.848 234.488 154.098H236.656C236.695 154.824 236.984 155.402 237.523 155.832C238.07 156.254 238.789 156.465 239.68 156.465C240.5 156.465 241.156 156.301 241.648 155.973C242.148 155.637 242.398 155.191 242.398 154.637ZM254.773 154.637C254.773 154.051 254.551 153.598 254.105 153.277C253.668 152.949 252.898 152.668 251.797 152.434C250.703 152.199 249.832 151.918 249.184 151.59C248.543 151.262 248.066 150.871 247.754 150.418C247.449 149.965 247.297 149.426 247.297 148.801C247.297 147.762 247.734 146.883 248.609 146.164C249.492 145.445 250.617 145.086 251.984 145.086C253.422 145.086 254.586 145.457 255.477 146.199C256.375 146.941 256.824 147.891 256.824 149.047H254.645C254.645 148.453 254.391 147.941 253.883 147.512C253.383 147.082 252.75 146.867 251.984 146.867C251.195 146.867 250.578 147.039 250.133 147.383C249.688 147.727 249.465 148.176 249.465 148.73C249.465 149.254 249.672 149.648 250.086 149.914C250.5 150.18 251.246 150.434 252.324 150.676C253.41 150.918 254.289 151.207 254.961 151.543C255.633 151.879 256.129 152.285 256.449 152.762C256.777 153.23 256.941 153.805 256.941 154.484C256.941 155.617 256.488 156.527 255.582 157.215C254.676 157.895 253.5 158.234 252.055 158.234C251.039 158.234 250.141 158.055 249.359 157.695C248.578 157.336 247.965 156.836 247.52 156.195C247.082 155.547 246.863 154.848 246.863 154.098H249.031C249.07 154.824 249.359 155.402 249.898 155.832C250.445 156.254 251.164 156.465 252.055 156.465C252.875 156.465 253.531 156.301 254.023 155.973C254.523 155.637 254.773 155.191 254.773 154.637Z" fill="white"/>
<rect x="110" y="214" width="200" height="50" rx="10" fill="#00BFA6"/>
<path d="M173.66 241.621L173.988 243.871L174.469 241.844L177.844 229.938H179.742L183.035 241.844L183.504 243.906L183.867 241.609L186.516 229.938H188.777L184.641 247H182.59L179.074 234.566L178.805 233.266L178.535 234.566L174.891 247H172.84L168.715 229.938H170.965L173.66 241.621ZM195.832 247.234C194.113 247.234 192.715 246.672 191.637 245.547C190.559 244.414 190.02 242.902 190.02 241.012V240.613C190.02 239.355 190.258 238.234 190.734 237.25C191.219 236.258 191.891 235.484 192.75 234.93C193.617 234.367 194.555 234.086 195.562 234.086C197.211 234.086 198.492 234.629 199.406 235.715C200.32 236.801 200.777 238.355 200.777 240.379V241.281H192.188C192.219 242.531 192.582 243.543 193.277 244.316C193.98 245.082 194.871 245.465 195.949 245.465C196.715 245.465 197.363 245.309 197.895 244.996C198.426 244.684 198.891 244.27 199.289 243.754L200.613 244.785C199.551 246.418 197.957 247.234 195.832 247.234ZM195.562 235.867C194.688 235.867 193.953 236.188 193.359 236.828C192.766 237.461 192.398 238.352 192.258 239.5H198.609V239.336C198.547 238.234 198.25 237.383 197.719 236.781C197.188 236.172 196.469 235.867 195.562 235.867ZM214.031 240.801C214.031 242.738 213.586 244.297 212.695 245.477C211.805 246.648 210.609 247.234 209.109 247.234C207.508 247.234 206.27 246.668 205.395 245.535L205.289 247H203.297V229H205.465V235.715C206.34 234.629 207.547 234.086 209.086 234.086C210.625 234.086 211.832 234.668 212.707 235.832C213.59 236.996 214.031 238.59 214.031 240.613V240.801ZM211.863 240.555C211.863 239.078 211.578 237.938 211.008 237.133C210.438 236.328 209.617 235.926 208.547 235.926C207.117 235.926 206.09 236.59 205.465 237.918V243.402C206.129 244.73 207.164 245.395 208.57 245.395C209.609 245.395 210.418 244.992 210.996 244.188C211.574 243.383 211.863 242.172 211.863 240.555ZM226.535 242.547H219.387L217.781 247H215.461L221.977 229.938H223.945L230.473 247H228.164L226.535 242.547ZM220.066 240.695H225.867L222.961 232.715L220.066 240.695ZM243.141 240.801C243.141 242.73 242.699 244.285 241.816 245.465C240.934 246.645 239.738 247.234 238.23 247.234C236.691 247.234 235.48 246.746 234.598 245.77V251.875H232.43V234.32H234.41L234.516 235.727C235.398 234.633 236.625 234.086 238.195 234.086C239.719 234.086 240.922 234.66 241.805 235.809C242.695 236.957 243.141 238.555 243.141 240.602V240.801ZM240.973 240.555C240.973 239.125 240.668 237.996 240.059 237.168C239.449 236.34 238.613 235.926 237.551 235.926C236.238 235.926 235.254 236.508 234.598 237.672V243.73C235.246 244.887 236.238 245.465 237.574 245.465C238.613 245.465 239.438 245.055 240.047 244.234C240.664 243.406 240.973 242.18 240.973 240.555ZM248.262 247H246.094V234.32H248.262V247ZM245.918 230.957C245.918 230.605 246.023 230.309 246.234 230.066C246.453 229.824 246.773 229.703 247.195 229.703C247.617 229.703 247.938 229.824 248.156 230.066C248.375 230.309 248.484 230.605 248.484 230.957C248.484 231.309 248.375 231.602 248.156 231.836C247.938 232.07 247.617 232.188 247.195 232.188C246.773 232.188 246.453 232.07 246.234 231.836C246.023 231.602 245.918 231.309 245.918 230.957Z" fill="white"/>
<rect x="350" y="36" width="50" height="228" rx="10" fill="#00BFA6"/>
<path d="M379.305 67.1133H371.91V73.1602H380.5V75H369.66V57.9375H380.383V59.7891H371.91V65.2734H379.305V67.1133ZM371.57 87.3203L371.641 88.9141C372.609 87.6953 373.875 87.0859 375.438 87.0859C378.117 87.0859 379.469 88.5977 379.492 91.6211V100H377.324V91.6094C377.316 90.6953 377.105 90.0195 376.691 89.582C376.285 89.1445 375.648 88.9258 374.781 88.9258C374.078 88.9258 373.461 89.1133 372.93 89.4883C372.398 89.8633 371.984 90.3555 371.688 90.9648V100H369.52V87.3203H371.57ZM375.156 109.25V112.32H377.523V113.996H375.156V121.859C375.156 122.367 375.262 122.75 375.473 123.008C375.684 123.258 376.043 123.383 376.551 123.383C376.801 123.383 377.145 123.336 377.582 123.242V125C377.012 125.156 376.457 125.234 375.918 125.234C374.949 125.234 374.219 124.941 373.727 124.355C373.234 123.77 372.988 122.938 372.988 121.859V113.996H370.68V112.32H372.988V109.25H375.156ZM375.578 150H373.41V137.32H375.578V150ZM373.234 133.957C373.234 133.605 373.34 133.309 373.551 133.066C373.77 132.824 374.09 132.703 374.512 132.703C374.934 132.703 375.254 132.824 375.473 133.066C375.691 133.309 375.801 133.605 375.801 133.957C375.801 134.309 375.691 134.602 375.473 134.836C375.254 135.07 374.934 135.188 374.512 135.188C374.09 135.188 373.77 135.07 373.551 134.836C373.34 134.602 373.234 134.309 373.234 133.957ZM375.156 159.25V162.32H377.523V163.996H375.156V171.859C375.156 172.367 375.262 172.75 375.473 173.008C375.684 173.258 376.043 173.383 376.551 173.383C376.801 173.383 377.145 173.336 377.582 173.242V175C377.012 175.156 376.457 175.234 375.918 175.234C374.949 175.234 374.219 174.941 373.727 174.355C373.234 173.77 372.988 172.938 372.988 171.859V163.996H370.68V162.32H372.988V159.25H375.156ZM375.578 200H373.41V187.32H375.578V200ZM373.234 183.957C373.234 183.605 373.34 183.309 373.551 183.066C373.77 182.824 374.09 182.703 374.512 182.703C374.934 182.703 375.254 182.824 375.473 183.066C375.691 183.309 375.801 183.605 375.801 183.957C375.801 184.309 375.691 184.602 375.473 184.836C375.254 185.07 374.934 185.188 374.512 185.188C374.09 185.188 373.77 185.07 373.551 184.836C373.34 184.602 373.234 184.309 373.234 183.957ZM375.039 225.234C373.32 225.234 371.922 224.672 370.844 223.547C369.766 222.414 369.227 220.902 369.227 219.012V218.613C369.227 217.355 369.465 216.234 369.941 215.25C370.426 214.258 371.098 213.484 371.957 212.93C372.824 212.367 373.762 212.086 374.77 212.086C376.418 212.086 377.699 212.629 378.613 213.715C379.527 214.801 379.984 216.355 379.984 218.379V219.281H371.395C371.426 220.531 371.789 221.543 372.484 222.316C373.188 223.082 374.078 223.465 375.156 223.465C375.922 223.465 376.57 223.309 377.102 222.996C377.633 222.684 378.098 222.27 378.496 221.754L379.82 222.785C378.758 224.418 377.164 225.234 375.039 225.234ZM374.77 213.867C373.895 213.867 373.16 214.188 372.566 214.828C371.973 215.461 371.605 216.352 371.465 217.5H377.816V217.336C377.754 216.234 377.457 215.383 376.926 214.781C376.395 214.172 375.676 213.867 374.77 213.867ZM377.336 246.637C377.336 246.051 377.113 245.598 376.668 245.277C376.23 244.949 375.461 244.668 374.359 244.434C373.266 244.199 372.395 243.918 371.746 243.59C371.105 243.262 370.629 242.871 370.316 242.418C370.012 241.965 369.859 241.426 369.859 240.801C369.859 239.762 370.297 238.883 371.172 238.164C372.055 237.445 373.18 237.086 374.547 237.086C375.984 237.086 377.148 237.457 378.039 238.199C378.938 238.941 379.387 239.891 379.387 241.047H377.207C377.207 240.453 376.953 239.941 376.445 239.512C375.945 239.082 375.312 238.867 374.547 238.867C373.758 238.867 373.141 239.039 372.695 239.383C372.25 239.727 372.027 240.176 372.027 240.73C372.027 241.254 372.234 241.648 372.648 241.914C373.062 242.18 373.809 242.434 374.887 242.676C375.973 242.918 376.852 243.207 377.523 243.543C378.195 243.879 378.691 244.285 379.012 244.762C379.34 245.23 379.504 245.805 379.504 246.484C379.504 247.617 379.051 248.527 378.145 249.215C377.238 249.895 376.062 250.234 374.617 250.234C373.602 250.234 372.703 250.055 371.922 249.695C371.141 249.336 370.527 248.836 370.082 248.195C369.645 247.547 369.426 246.848 369.426 246.098H371.594C371.633 246.824 371.922 247.402 372.461 247.832C373.008 248.254 373.727 248.465 374.617 248.465C375.438 248.465 376.094 248.301 376.586 247.973C377.086 247.637 377.336 247.191 377.336 246.637Z" fill="white"/>
<rect x="439" y="36" width="50" height="228" rx="10" fill="#00BFA6"/>
<path d="M470.215 115.586C470.004 117.391 469.336 118.785 468.211 119.77C467.094 120.746 465.605 121.234 463.746 121.234C461.73 121.234 460.113 120.512 458.895 119.066C457.684 117.621 457.078 115.688 457.078 113.266V111.625C457.078 110.039 457.359 108.645 457.922 107.441C458.492 106.238 459.297 105.316 460.336 104.676C461.375 104.027 462.578 103.703 463.945 103.703C465.758 103.703 467.211 104.211 468.305 105.227C469.398 106.234 470.035 107.633 470.215 109.422H467.953C467.758 108.062 467.332 107.078 466.676 106.469C466.027 105.859 465.117 105.555 463.945 105.555C462.508 105.555 461.379 106.086 460.559 107.148C459.746 108.211 459.34 109.723 459.34 111.684V113.336C459.34 115.188 459.727 116.66 460.5 117.754C461.273 118.848 462.355 119.395 463.746 119.395C464.996 119.395 465.953 119.113 466.617 118.551C467.289 117.98 467.734 116.992 467.953 115.586H470.215ZM457.723 139.543C457.723 138.301 457.965 137.184 458.449 136.191C458.941 135.199 459.621 134.434 460.488 133.895C461.363 133.355 462.359 133.086 463.477 133.086C465.203 133.086 466.598 133.684 467.66 134.879C468.73 136.074 469.266 137.664 469.266 139.648V139.801C469.266 141.035 469.027 142.145 468.551 143.129C468.082 144.105 467.406 144.867 466.523 145.414C465.648 145.961 464.641 146.234 463.5 146.234C461.781 146.234 460.387 145.637 459.316 144.441C458.254 143.246 457.723 141.664 457.723 139.695V139.543ZM459.902 139.801C459.902 141.207 460.227 142.336 460.875 143.188C461.531 144.039 462.406 144.465 463.5 144.465C464.602 144.465 465.477 144.035 466.125 143.176C466.773 142.309 467.098 141.098 467.098 139.543C467.098 138.152 466.766 137.027 466.102 136.168C465.445 135.301 464.57 134.867 463.477 134.867C462.406 134.867 461.543 135.293 460.887 136.145C460.23 136.996 459.902 138.215 459.902 139.801ZM467.203 160.266C466.875 160.211 466.52 160.184 466.137 160.184C464.715 160.184 463.75 160.789 463.242 162V171H461.074V158.32H463.184L463.219 159.785C463.93 158.652 464.938 158.086 466.242 158.086C466.664 158.086 466.984 158.141 467.203 158.25V160.266ZM464.039 196.234C462.32 196.234 460.922 195.672 459.844 194.547C458.766 193.414 458.227 191.902 458.227 190.012V189.613C458.227 188.355 458.465 187.234 458.941 186.25C459.426 185.258 460.098 184.484 460.957 183.93C461.824 183.367 462.762 183.086 463.77 183.086C465.418 183.086 466.699 183.629 467.613 184.715C468.527 185.801 468.984 187.355 468.984 189.379V190.281H460.395C460.426 191.531 460.789 192.543 461.484 193.316C462.188 194.082 463.078 194.465 464.156 194.465C464.922 194.465 465.57 194.309 466.102 193.996C466.633 193.684 467.098 193.27 467.496 192.754L468.82 193.785C467.758 195.418 466.164 196.234 464.039 196.234ZM463.77 184.867C462.895 184.867 462.16 185.188 461.566 185.828C460.973 186.461 460.605 187.352 460.465 188.5H466.816V188.336C466.754 187.234 466.457 186.383 465.926 185.781C465.395 185.172 464.676 184.867 463.77 184.867Z" fill="white"/>
</svg>
